<svg id="Logo" xmlns="http://www.w3.org/2000/svg" width="150.435" height="150.435" viewBox="0 0 150.435 150.435">
  <path id="Path_21694" data-name="Path 21694" d="M150.435,75.217A75.217,75.217,0,1,1,75.217,0a75.217,75.217,0,0,1,75.217,75.217" fill="#02955f"/>
  <path id="Path_21695" data-name="Path 21695" d="M78.363,112.034c-14.54,14.945-17.7,31.667-8.318,40.625a18.746,18.746,0,0,0,6.4,4.051,30.741,30.741,0,0,0,12.275,2.034,54.082,54.082,0,0,0,20.73-4.7c10.831-4.727,18.9-11.857,22.748-19.212,1.959-2.844,4.022-12.161-.738-16.4-.516-.46-1.051-.879-1.593-1.286-.477,1.11-2.795,5.991-3.9,8.511-6.556.748-18.041-8.035-15.814-9.026,2.945-1.309,6.379-2.86,8.945-3.99-18.393-3.581-39.763,13.072-46.2,20.169,5.054-17.1,47.618-45.731,71.646-40.129a17.268,17.268,0,0,1,12.523-3.264,25.515,25.515,0,0,1-3.4,7.831c4.225,4.365,3.043,12.089-1.756,20.838-4.871,9.846-13.144,20.113-24.053,28.987-24.577,19.973-53.253,25.3-64.059,11.912-.333-.412-.646-.843-.94-1.28-7.737-10.381-2.873-28.679,12.967-44.954a86.362,86.362,0,0,1,12.347-10.5A88.924,88.924,0,0,1,114.274,89.4l-1.058.686c-.738.287-1.815.724-3.147,1.3-2.67,1.155-6.379,2.873-10.538,5.158a111.564,111.564,0,0,0-10.61,6.646,69.346,69.346,0,0,0-10.558,8.848" transform="translate(-42.394 -63.886)" fill="#0e8559"/>
  <path id="Path_21696" data-name="Path 21696" d="M104.376,407.465a1.381,1.381,0,0,0,.157-.532l.015-8.952c0-.469-.094-.626-.61-1.2H109.9v2.175c-.392-.642-.7-.876-1.221-.876h-2.472v3.3h2.676v1.768c-.36-.485-.751-.642-1.628-.642h-1.08v4.225a10.392,10.392,0,0,0,1.909.173c.251,0,.485,0,.72-.015a4.014,4.014,0,0,0,2.582-1l-.735,2.175H103.8a1.672,1.672,0,0,0,.579-.595" transform="translate(-74.282 -283.951)" fill="#fff"/>
  <path id="Path_21697" data-name="Path 21697" d="M144.459,398.164q-.235-.164-.423-.282a4.049,4.049,0,0,0-2.363-.6c-2.832,0-4.71,1.769-4.71,4.445,0,2.755,2.066,4.679,5.007,4.679a6.792,6.792,0,0,0,2.019-.376v-3.271a1.607,1.607,0,0,0-.125-.563,1.735,1.735,0,0,0-.485-.595h2.347v5.619c-.344.078-.626.156-.8.188a15.411,15.411,0,0,1-2.958.3,8.614,8.614,0,0,1-3.3-.564,5.693,5.693,0,0,1-3.4-5.211,5.879,5.879,0,0,1,2.6-4.914,7.13,7.13,0,0,1,4.429-1.127,7.315,7.315,0,0,1,2.159.282Z" transform="translate(-96.807 -283.32)" fill="#fff"/>
  <path id="Path_21698" data-name="Path 21698" d="M173.789,396.776l3.146,4.945,2.551-3.74a.848.848,0,0,0,.156-.485c0-.2-.141-.376-.516-.72h2.786l-4.335,6.259v3.9c0,.438.188.735.736,1.127h-3.161c.345-.251.485-.392.564-.6a3.306,3.306,0,0,0,.125-.313c.031-.141.046-.2.046-.219l.031-3.928-3.4-5.023c-.063-.063-.11-.125-.188-.219a3.143,3.143,0,0,0-.735-.626c-.11-.078-.282-.188-.5-.36Z" transform="translate(-122.445 -283.951)" fill="#fff"/>
  <path id="Path_21699" data-name="Path 21699" d="M210.1,407.465a1.68,1.68,0,0,0,.141-.532l.016-8.952v-.219a.8.8,0,0,0-.11-.344,2.224,2.224,0,0,0-.5-.641h3.208c2.644,0,4.147,1.033,4.147,2.864,0,1.705-1.69,2.989-3.928,2.989a2.086,2.086,0,0,1-.877-.157,4.363,4.363,0,0,0,1.831-.516,2.363,2.363,0,0,0,1.252-2.035,2.166,2.166,0,0,0-2.395-2.066c-.141,0-.344,0-.626.015-.063.016-.188.016-.313.032v9.03a1.538,1.538,0,0,0,.125.548,1.465,1.465,0,0,0,.563.579h-3.067a1.584,1.584,0,0,0,.532-.595" transform="translate(-149.973 -283.951)" fill="#fff"/>
  <path id="Path_21700" data-name="Path 21700" d="M238.135,396.776h8.482l-.7,2.253a2,2,0,0,0-.345-.438,2.837,2.837,0,0,0-1.847-.485,7.486,7.486,0,0,0-.861.062v8.764a1.1,1.1,0,0,0,.047.219,1.8,1.8,0,0,0,.109.313,1.821,1.821,0,0,0,.61.6h-3.146a1.432,1.432,0,0,0,.532-.6,1.722,1.722,0,0,0,.109-.313c.016-.109.032-.173.032-.219v-8.749a9.378,9.378,0,0,0-.971-.047c-.313,0-.579.031-.845.047a3.336,3.336,0,0,0-1.878.7Z" transform="translate(-169.938 -283.951)" fill="#fff"/>
  <path id="Path_21701" data-name="Path 21701" d="M292.363,407.465a1.683,1.683,0,0,0,.141-.532l.016-8.952v-.219a.8.8,0,0,0-.11-.344,2.223,2.223,0,0,0-.5-.641h3.208c2.645,0,4.147,1.033,4.147,2.864,0,1.705-1.69,2.989-3.928,2.989a2.084,2.084,0,0,1-.877-.157,4.363,4.363,0,0,0,1.831-.516,2.363,2.363,0,0,0,1.252-2.035,2.166,2.166,0,0,0-2.395-2.066c-.141,0-.344,0-.626.015-.062.016-.188.016-.313.032v9.03a1.538,1.538,0,0,0,.125.548,1.467,1.467,0,0,0,.563.579h-3.067a1.59,1.59,0,0,0,.532-.595" transform="translate(-208.847 -283.951)" fill="#fff"/>
  <path id="Path_21702" data-name="Path 21702" d="M328.287,395.895a5.908,5.908,0,0,1-.032,11.815,5.908,5.908,0,1,1,.032-11.815m-4.272,5.947a4.63,4.63,0,0,0,4.491,4.741c2.3,0,3.96-1.909,3.96-4.538,0-2.77-1.878-4.914-4.3-4.914-2.5,0-4.146,1.8-4.146,4.507Z" transform="translate(-230.625 -283.32)" fill="#fff"/>
  <path id="Path_21703" data-name="Path 21703" d="M370.506,406.312a5.847,5.847,0,0,0,1.69.3c1.33,0,2.348-.751,2.348-1.737a1.719,1.719,0,0,0-.36-1,5.65,5.65,0,0,0-1.534-.877l-1.518-.595a3.085,3.085,0,0,1-2.285-2.833c0-1.893,1.705-3.177,4.256-3.177a7.5,7.5,0,0,1,2.128.3v1.987a3.476,3.476,0,0,0-2.425-.986c-1.331,0-2.223.657-2.223,1.659,0,.7.532,1.221,1.753,1.722l1.409.579c1.847.735,2.582,1.565,2.582,2.927,0,2.05-1.847,3.459-4.554,3.459a10.232,10.232,0,0,1-1.158-.078,5.2,5.2,0,0,1-1.33-.344l-.579-2.128a6.03,6.03,0,0,0,1.8.829" transform="translate(-263.863 -283.675)" fill="#fff"/>
  <path id="Path_21704" data-name="Path 21704" d="M393.373,396.776h8.482l-.7,2.253a2.01,2.01,0,0,0-.344-.438,2.838,2.838,0,0,0-1.847-.485,7.486,7.486,0,0,0-.861.062v8.764a1.1,1.1,0,0,0,.047.219,1.3,1.3,0,0,0,.72.908H395.72a1.432,1.432,0,0,0,.532-.6,1.721,1.721,0,0,0,.109-.313c.016-.109.032-.173.032-.219v-8.749a9.378,9.378,0,0,0-.971-.047c-.313,0-.579.031-.845.047a3.337,3.337,0,0,0-1.878.7Z" transform="translate(-281.034 -283.951)" fill="#fff"/>
  <path id="Path_21705" data-name="Path 21705" d="M314.791,352.548l1.594,1.284,1.186-1.5-1.585-1.247Z" transform="translate(-225.279 -251.249)" fill="#fff"/>
  <path id="Path_21706" data-name="Path 21706" d="M380.056,350.734l1.594,1.285,1.186-1.5-1.585-1.247Z" transform="translate(-271.985 -249.951)" fill="#fff"/>
  <path id="Path_21707" data-name="Path 21707" d="M306.563,351.081l-1.2,1.467,1.594,1.284,1.186-1.5Z" transform="translate(-218.531 -251.249)" fill="#fff"/>
  <path id="Path_21708" data-name="Path 21708" d="M291.915,302.95c.117-.544.192-1.509-1.261-3.534l-.52,1.833s.23.349.44.755a5.445,5.445,0,0,1,.511,1.255,10.21,10.21,0,0,1-4.318,2.115c-2.522.585-9.759,1.963-12.089-1.364a19.056,19.056,0,0,1-1.064-4.242c-.15-1.121-.882-4.909-2.663-7.06a20.667,20.667,0,0,0-.3,2.38c0,.007,2.053,4.891,2.33,7.469-.315.835-2.4,3.745-6.971,5.55a1.426,1.426,0,0,1-1.866-1.575,9.81,9.81,0,0,1,.928-2.953,4.281,4.281,0,0,0,.173-.525.522.522,0,0,0-.22-.633,1.087,1.087,0,0,0-.314.239l-.117.376a4.935,4.935,0,0,1-.267.673c-.225.447-1.205,2.627-.811,4.212.4,1.617,1.687,2.32,3.469,1.608,1.711-.68,5.377-3.075,6.525-5.579l.136.37a4.144,4.144,0,0,0,1.12,1.707c.253.2.525.426.853.646a5.929,5.929,0,0,0,1.214.631,10.355,10.355,0,0,0,4.322.495c3.98-.229,7.861-.853,10.285-3.159.258-.959.366-1.186.469-1.688" transform="translate(-188.522 -209.475)" fill="#fff"/>
  <path id="Path_21709" data-name="Path 21709" d="M420.487,286.472a49.048,49.048,0,0,0-1.866-5.19l-.914,1.643a1.574,1.574,0,0,1,.2.6c0,.288.966,11.932.966,13.563s-.15,3.86-.23,5.071a7.833,7.833,0,0,0,1.416-4.682c-.094-2.3-.455-9.478-.535-11.067l.258.258a1.645,1.645,0,0,1,.206.248.466.466,0,0,0,.384.2c.16-.028.23-.216.117-.647" transform="translate(-298.93 -201.298)" fill="#fff"/>
  <path id="Path_21710" data-name="Path 21710" d="M349.474,281.283l-.909,1.643a1.572,1.572,0,0,1,.2.6c0,.274.867,10.938.867,13.486a1.8,1.8,0,0,1-.3.255,3.8,3.8,0,0,1-1.7.565c-1.622.2-2.166-.86-2.283-2.07-.061-.625-.131-1.411-.253-2.091a3.09,3.09,0,0,0-.567-1.563c-.216-.148-.553-.075-.7.431a3.5,3.5,0,0,0-.093.469l-.075.56a4.647,4.647,0,0,1-.127.78c-.08.16-.3.523-1.758.9-.3.068-.839.108-1.969-2.048a7.81,7.81,0,0,0-.515,1.523,21.325,21.325,0,0,1,1.233,3.687c-.169.335-1.5,2.911-13.243,6.387,1.064.061,6.188-.368,6.188-.368s1.547-.588,3.2-1.4c1.636-.807,3.464-1.866,4-2.819a8.4,8.4,0,0,0,.75-3.277,2.592,2.592,0,0,0,2.7-1.31c.024-.371.075-.849.117-1.216a3.853,3.853,0,0,1,.2,1.029,14.418,14.418,0,0,0,.178,1.591,3.559,3.559,0,0,0,.662,1.7c.7.774,2.657,1.287,4.617-.274l.183-.228a5.387,5.387,0,0,0,.347-.609,4.245,4.245,0,0,0,.464-2c-.145-3.061-.459-7.885-.5-9.207l.258.258a2.036,2.036,0,0,1,.206.248.459.459,0,0,0,.384.2c.16-.028.23-.216.117-.647a49.175,49.175,0,0,0-1.871-5.189" transform="translate(-234.208 -201.299)" fill="#fff"/>
  <path id="Path_21711" data-name="Path 21711" d="M339.242,291.7l-15.309,5.074-.685,1.4s12.132-4.32,14.893-5.1c.239-.33,1.1-1.375,1.1-1.375" transform="translate(-231.331 -208.755)" fill="#fff"/>
  <path id="Path_21712" data-name="Path 21712" d="M387.861,302.6c.713.532,1.1-.2,1.223-1.172a.763.763,0,0,0,.019-.258c-.014-.058-.038-.089-.244.026l-.108.27a1.28,1.28,0,0,1-.122.239.259.259,0,0,1-.389.07c-.52-.286-.225-1.617.056-2.592.272-.933.563-1.664.567-1.749,0-.032-.009-.107-.243-.089a.581.581,0,0,0-.122.2,19.284,19.284,0,0,0-.689,2.035c-.2.8-.586,2.542.051,3.019" transform="translate(-277.32 -212.794)" fill="#fff"/>
  <path id="Path_21713" data-name="Path 21713" d="M307.7,289.389c.253.384.952,1.622,1.008,1.584a.9.9,0,0,0,.3-.45l.431-1.751c.033-.148.127-.265.23-.256s.371.422.431.525l.225-.333a1.526,1.526,0,0,0,.215-.469c-.787-1.2-1.242-.387-1.35-.082-.1.274-.291.958-.436,1.594a4.937,4.937,0,0,0-1.574-1.976,3.031,3.031,0,0,0-.165.436,1.862,1.862,0,0,0-.065.787.514.514,0,0,0,.755.39" transform="translate(-219.653 -205.823)" fill="#fff"/>
  <path id="Path_21714" data-name="Path 21714" d="M111.164,318.192c1.073-.518,2.808-1.643,3.248-3.08.432-1.4.173-1.915-.3-2.234a3.77,3.77,0,0,0-1.518-.225c-.656-.019-1.369-.014-1.8-.049a1.986,1.986,0,0,1-1.5-.722,7.915,7.915,0,0,1,2.494-2.824,1.089,1.089,0,0,1,1-.131.757.757,0,0,1,.216.15l.225.3a12.966,12.966,0,0,0,.479-1.659,1.02,1.02,0,0,0-1.35-.544,3.555,3.555,0,0,0-1.04.553c-1.5,1.188-2.944,2.974-2.934,4.945,0,1.015,1.04,1.437,2.025,1.619a12.785,12.785,0,0,0,2.4.143,2.1,2.1,0,0,1,.848.14c-.342.444-1.256,1.369-4.9,2.853-3.97,1.624-5.982-.148-6.666-1.686a5.1,5.1,0,0,1-.057-2.831,12.705,12.705,0,0,1,.516-1.851c.084-.244.051-.418-.164-.483-.117-.033-.216.023-.352.134,0,0-.488,1.324-.544,1.554-1.275,4.228.113,6.413,2.569,7.221,2.587.856,6.038-.785,7.1-1.294" transform="translate(-72.291 -219.778)" fill="#fff"/>
  <path id="Path_21715" data-name="Path 21715" d="M154.911,295.084a1.826,1.826,0,0,0-1.664-.811,4.413,4.413,0,0,0-.928.1c-.16-2.982-.422-6.757-.5-7.76a.2.2,0,0,1,.127-.218,3.8,3.8,0,0,1,.426.525.462.462,0,0,0,.384.2c.16-.028.23-.216.117-.647a50.3,50.3,0,0,0-1.9-5.189l-.909,1.643a1.769,1.769,0,0,1,.192.607q.317,2.778.811,11.211c-.572.18-1.716.567-2.4.855a12.451,12.451,0,0,0,.206-1.472,3.452,3.452,0,0,0-2.559-2.817c-1.463-.258-2.841,1.181-3.83,2.587a18.839,18.839,0,0,0-1.214,2.006l-.412.825a1.2,1.2,0,0,1-.469-.495,1.255,1.255,0,0,1-.1-.274l-.038-.22a.952.952,0,0,1,.089-.384c.056-.159.136-.309.173-.394a.387.387,0,0,0-.042-.384.3.3,0,0,0-.361.042c-.886,1.083-3.806,2.17-7.641,2.123a11.052,11.052,0,0,1-3.923-.591,4.7,4.7,0,0,1-.984-.527c-.272-.191-.488-.383-.7-.561a7.229,7.229,0,0,1-1.5-2.752s-.535,1.373-.666,1.884a13.758,13.758,0,0,1,1.242,3.9c-1.35,1.708-4.692,3.232-7.739,4.326-1.524.548-2.963.987-4.017,1.3l-1.261.387a3.433,3.433,0,0,0-.347.124c-.084.038-.169.092-.15.216,0,0,5.621-.432,6.389-.446,4.828-1.448,7.06-3.848,7.162-3.989a5.31,5.31,0,0,0,.549-1.327,7.819,7.819,0,0,0,.248-.821,4.776,4.776,0,0,0,.084-.752,13.4,13.4,0,0,0,6.863,1.289,12.814,12.814,0,0,0,5.71-1.671,2.171,2.171,0,0,0,.38,1.2,1.747,1.747,0,0,0,.464.413,3.505,3.505,0,0,0-.2,1.165.211.211,0,0,0,.286.183.307.307,0,0,0,.215-.185c.009-.054.146-.489.3-.888a8.679,8.679,0,0,0,4.284-.286,37.158,37.158,0,0,0,3.6-1.207c1.129-.419,2-.687,2.4-.806a2.367,2.367,0,0,0,1.214,1.8,1.462,1.462,0,0,0,1.641-.117,4.017,4.017,0,0,0,.886-1.889,1.982,1.982,0,0,0,.084-.727.835.835,0,0,0-.084-.3m-13.369,1.962c.408-.806,2.193-4.086,4.115-4.057,1.289.021,2.006,1.7,2.217,2.278-.665.438-3.68,2.137-6.332,1.779m11.208-.757a1.452,1.452,0,0,1-.258-.333l.094-.012a2.061,2.061,0,0,1,.764.1.657.657,0,0,1,.5.666,1.465,1.465,0,0,1-1.1-.42" transform="translate(-80.459 -201.299)" fill="#fff"/>
  <path id="Path_21716" data-name="Path 21716" d="M271.253,294.3c.033.794.094,1.626.113,2.4a20.081,20.081,0,0,0,.061,2.121,6.353,6.353,0,0,0,1.083-4.183c-.089-2.3-.38-6.7-.45-8.128,0-.094.014-.162.1-.2l.258.258a1.641,1.641,0,0,1,.206.248.475.475,0,0,0,.389.2c.159-.028.225-.216.117-.647-.169-.649-1.491-4.28-1.847-5.231l-.933,1.685a1.7,1.7,0,0,1,.192.6c0,.288.652,9.242.713,10.875" transform="translate(-193.473 -201.193)" fill="#fff"/>
  <path id="Path_21717" data-name="Path 21717" d="M229.336,350.682a3.736,3.736,0,0,0-.253.394c-.112.216.066.265.342.229l.084-.019,5.437-2.046a8.465,8.465,0,0,0,.408-.846c-4.931,1.737-5.873,2.091-6.019,2.288" transform="translate(-163.917 -249.326)" fill="#fff"/>
  <path id="Path_21718" data-name="Path 21718" d="M204.867,299.414a3.878,3.878,0,0,0,1.3-.71c.4-.305.731-.617.9-.75.318-.251.492-.155.862.216a1.062,1.062,0,0,0,.821,0,1.681,1.681,0,0,0,1.191-1.4c.065-.516-.39-.924-.891-.577a6.049,6.049,0,0,1-1.026.816.449.449,0,0,0-.384-.105,1.7,1.7,0,0,0-.816.448c-.287.236-.6.529-.91.782a13.02,13.02,0,0,1-2.058,1.209c-.061.019-.127.059-.179.282a3.572,3.572,0,0,0,1.186-.209m4.2-2.513c.258-.216.427-.068.361.073a2.549,2.549,0,0,1-.385.209,1.878,1.878,0,0,1-.375.131,3.078,3.078,0,0,1,.4-.412" transform="translate(-145.763 -211.875)" fill="#fff"/>
  <path id="Path_21719" data-name="Path 21719" d="M221.965,298.813c.065-.141-.1-.288-.361-.073a3.078,3.078,0,0,0-.4.412,1.907,1.907,0,0,0,.375-.131,2.507,2.507,0,0,0,.384-.208" transform="translate(-158.305 -213.714)" fill="#fff"/>
  <path id="Path_21720" data-name="Path 21720" d="M171.022,348.174l-.117.225-.122.335c0,.045.028.087.2.063a3.037,3.037,0,0,1,.211-.284c.042-.054.1-.054.253.025a1.81,1.81,0,0,0-.441.244,1.334,1.334,0,0,0-.253.8,23.776,23.776,0,0,0,.455,2.474,1.447,1.447,0,0,0,.188-.858,4.377,4.377,0,0,0-.075-.633c-.023-.157-.136-.942-.2-1.352a1.082,1.082,0,0,1,.923-.173l.188-.551a3.536,3.536,0,0,1-.689-.535.487.487,0,0,0-.516.216" transform="translate(-122.193 -249.004)" fill="#fff"/>
  <path id="Path_21721" data-name="Path 21721" d="M156.927,289.387a18.383,18.383,0,0,0,1.012,1.584c.108-.07.178-.182.3-.45l.431-1.751c.032-.148.127-.265.225-.256.122.017.375.422.431.525l.229-.333a1.411,1.411,0,0,0,.211-.469c-.783-1.2-1.238-.387-1.345-.082-.1.274-.291.958-.441,1.593a4.944,4.944,0,0,0-1.57-1.976,3.069,3.069,0,0,0-.164.436,1.853,1.853,0,0,0-.065.787.511.511,0,0,0,.75.39" transform="translate(-111.754 -205.821)" fill="#fff"/>
  <path id="Path_21722" data-name="Path 21722" d="M106.438,297.008c.9.675,1.4-.234,1.566-1.519.056-.3.033-.412-.253-.29l-.141.349a1.965,1.965,0,0,1-.164.316.355.355,0,0,1-.534.1c-.694-.384-.3-2.144.07-3.405.356-1.221.731-2.173.731-2.173s.009-.054-.089-.265a.185.185,0,0,0-.192.053.775.775,0,0,0-.155.258,23.616,23.616,0,0,0-.9,2.658c-.263,1.05-.759,3.31.061,3.919" transform="translate(-75.849 -207.616)" fill="#fff"/>
  <rect id="Rectangle_2468" data-name="Rectangle 2468" width="92.318" height="0.868" transform="translate(29.009 107.623)" fill="#fff"/>
  <path id="Path_21723" data-name="Path 21723" d="M162.587,90.7c-9.678,9.948-11.782,21.077-5.537,27.04a12.478,12.478,0,0,0,4.26,2.7,20.464,20.464,0,0,0,8.17,1.354,36,36,0,0,0,13.8-3.128c7.21-3.146,12.581-7.892,15.141-12.788,1.3-1.893,2.677-8.094-.49-10.915-.344-.306-.7-.585-1.06-.856-.318.739-1.861,3.987-2.6,5.665-4.363.5-12.008-5.348-10.526-6.008,1.961-.872,4.246-1.9,5.954-2.656-12.242-2.383-26.467,8.7-30.752,13.425,3.364-11.382,31.695-30.439,47.688-26.71a11.493,11.493,0,0,1,8.335-2.173A16.967,16.967,0,0,1,212.7,80.86c2.812,2.906,2.025,8.046-1.169,13.87a60.184,60.184,0,0,1-16.01,19.294c-16.358,13.294-35.445,16.842-42.637,7.929-.222-.274-.43-.561-.626-.852-5.15-6.91-1.912-19.089,8.63-29.921a57.482,57.482,0,0,1,8.218-6.989,59.185,59.185,0,0,1,17.379-8.557l-.7.456c-.491.191-1.208.482-2.095.865-1.777.769-4.246,1.912-7.014,3.433a74.117,74.117,0,0,0-7.062,4.424,46.129,46.129,0,0,0-7.027,5.889" transform="translate(-107.245 -54.067)" fill="#fff"/>
  <rect id="Rectangle_2469" data-name="Rectangle 2469" width="150.435" height="150.435" fill="none"/>
</svg>
